# AST/ASF file generated using VICON BodyLanguage
# -----------------------------------------------
:version 1.10
:name VICON
:units
  mass 1.0
  length 0.45
  angle deg
:documentation
   .ast/.asf automatically generated from VICON data using
   VICON BodyBuilder and BodyLanguage model FoxedUp or BRILLIANT.MOD
:root
   order TX TY TZ RX RY RZ
   axis XYZ
   position 0 0 0  
   orientation 0 0 0 
:bonedata
  begin
     id 1 
     name lhipjoint
     direction 0.606768 -0.715223 0.346827 
     length 2.41543 
     axis 0 0 0  XYZ
  end
  begin
     id 2 
     name lfemur
     direction 0.34202 -0.939693 0  
     length 7.2778  
     axis 0 0 20  XYZ
    dof rx ry rz
    limits (-160.0 20.0)
           (-70.0 70.0)
           (-60.0 70.0)
  end
  begin
     id 3 
     name ltibia
     direction 0.34202 -0.939693 0   
     length 7.61811   
     axis 0 0 20   XYZ
    dof rx
    limits (-10.0 170.0)
  end
  begin
     id 4 
     name lfoot
     direction 0.0823924 -0.226371 0.97055   
     length 2.33618   
     axis -90 7.62852e-016 20   XYZ
    dof rx rz
    limits (-45.0 90.0)
           (-70.0 20.0)
  end
  begin
     id 5 
     name ltoes
     direction 1.53554e-011 -4.21934e-011 1   
     length 1.17015   
     axis -90 7.62852e-016 20   XYZ
    dof rx
    limits (-90.0 20.0)
  end
  begin
     id 6 
     name rhipjoint
     direction -0.6077 -0.714582 0.346516   
     length 2.4176  
     axis 0 0 0  XYZ 
  end
  begin
     id 7 
     name rfemur
     direction -0.34202 -0.939693 0   
     length 7.28127   
     axis 0 0 -20   XYZ
    dof rx ry rz
    limits (-160.0 20.0)
           (-70.0 70.0)
           (-70.0 60.0)
  end
  begin
     id 8 
     name rtibia
     direction -0.34202 -0.939693 0   
     length 7.77648   
     axis 0 0 -20   XYZ
    dof rx
    limits (-10.0 170.0)
 end
 begin
     id 9 
     name rfoot
     direction -0.0809463 -0.222398 0.97159   
     length 2.37533  
     axis -90 -7.62852e-016 -20   XYZ
    dof rx rz
    limits (-45.0 90.0)
           (-20.0 70.0)
  end
  begin
     id 10 
     name rtoes
     direction -1.53568e-011 -4.21714e-011 1   
     length 1.18972   
     axis -90 -7.62852e-016 -20   XYZ
    dof rx
    limits (-90.0 20.0)
  end
  begin
     id 11 
     name lowerback
     direction 0.010968 0.991932 -0.126297   
     length 2.21698   
     axis 0 0 0   XYZ
    dof rx ry rz
    limits (-20.0 45.0)
           (-30.0 30.0)
           (-30.0 30.0)
  end
  begin
     id 12 
     name upperback
     direction 0.0167007 0.997503 -0.0686276   
     length 2.22371   
     axis 0 0 0   XYZ
    dof rx ry rz
    limits (-20.0 45.0)
           (-30.0 30.0)
           (-30.0 30.0)
  end
  begin
     id 13 
     name thorax
     direction 0.0111721 0.999885 -0.0102878   
     length 2.25242   
     axis 0 0 0   XYZ
    dof rx ry rz
    limits (-20.0 45.0)
           (-30.0 30.0)
           (-30.0 30.0)
  end
  begin
     id 14 
     name lowerneck
     direction -0.0120265 0.990428 0.137508   
     length 1.57674   
     axis 0 0 0   XYZ
    dof rx ry rz
    limits (-20.0 45.0)
           (-30.0 30.0)
           (-30.0 30.0)
  end
  begin
     id 15 
     name upperneck
     direction 0.0175669 0.998907 0.0433089   
     length 1.5618   
     axis 0 0 0   XYZ
    dof rx ry rz
    limits (-20.0 45.0)
           (-30.0 30.0)
           (-30.0 30.0)
  end
  begin
     id 16
     name head
     direction 0.00754609 0.99997 0.00185367  
     length 1.60579  
     axis 0 0 0   XYZ
    dof rx ry rz
    limits (-20.0 45.0)
           (-30.0 30.0)
           (-30.0 30.0)
  end
  begin
     id 17 
     name lclavicle
     direction 0.885866 0.429166 -0.176231  
     length 3.44967  
     axis 0 0 0   XYZ
    dof ry rz
    limits (-20.0 10.0)
           (0.0 20.0)
  end
  begin
     id 18 
     name lhumerus
     direction 1 -4.48973e-011 -1.90255e-027   
     length 5.20607   
     axis 180 -30 -90   XYZ
    dof rx ry rz
    limits (-60.0 90.0)
           (-90.0 90.0)
           (-90.0 90.0)
  end
  begin
     id 19
     name lradius
     direction 1 -4.48956e-011 9.87925e-027   
     length 3.39961   
     axis 180 -30 -90   XYZ
    dof rx
    limits (-10.0 170.0)
  end
  begin
     id 20
     name lwrist
     direction 1 -4.48985e-011 1.73247e-026   
     length 1.6998   
     axis -9.60847e-015 90 90   XYZ
    dof ry
    limits (-180.0 0.0)
 end
  begin
     id 21 
     name lhand
     direction 1 -4.48798e-011 3.46119e-026   
     length 0.519693   
     axis -2.21073e-014 90 90   XYZ
    dof rx rz
    limits (-90.0 90.0)
           (-45.0 45.0)
  end
  begin
     id 22 
     name lfingers
     direction 1 -4.48938e-011 6.92797e-026   
     length 0.41899   
     axis -4.42155e-014 90 90   XYZ
    dof rx
    limits (0.0 90.0)
  end
  begin
     id 23
     name lthumb
     direction 0.707107 -6.34952e-011 0.707107   
     length 0.601588   
     axis -90 45 6.0103e-014   XYZ
    dof rx rz
    limits (-45.0 45.0)
           (-45.0 45.0)
  end
  begin
     id 24 
     name rclavicle
     direction -0.866736 0.456792 -0.200276   
     length 3.45032  
     axis 0 0 0   XYZ 
    dof ry rz
    limits (-10.0 20.0)
           (-20.0 0.0)
  end
  begin
     id 25 
     name rhumerus
     direction -1 -4.4897e-011 8.65094e-028  
     length 5.32214   
     axis 180 30 90   XYZ
    dof rx ry rz
    limits (-90.0 60.0)
           (-90.0 90.0)
           (-90.0 90.0)
  end
  begin
     id 26 
     name rradius
     direction -1 -4.48987e-011 1.08427e-026   
     length 3.51208   
     axis 180 30 90   XYZ
    dof rx
    limits (-10.0 170.0)
  end
  begin
     id 27 
     name rwrist
     direction -1 -4.48961e-011 1.73222e-026   
     length 1.75604   
     axis -9.60847e-015 -90 -90   XYZ
    dof ry
    limits (-180.0 0.0)
  end
  begin
     id 28
     name rhand
     direction -1 -4.48895e-011 3.46314e-026   
     length 0.586681   
     axis -2.21073e-014 -90 -90   XYZ
    dof rx rz
    limits (-90.0 90.0)
           (-45.0 45.0)
  end
  begin
     id 29
     name rfingers
     direction -1 -4.48968e-011 6.92916e-026   
     length 0.472997   
     axis -4.42155e-014 -90 -90   XYZ
    dof rx
    limits (0.0 90.0)
  end
  begin
     id 30
     name rthumb
     direction -0.707107 -6.34848e-011 0.707107   
     length 0.679133   
     axis -90 -45 -6.0103e-014   XYZ
    dof rx rz
    limits (-45.0 45.0)
           (-45.0 45.0)
  end
:hierarchy
  begin
    root lhipjoint rhipjoint lowerback
    lhipjoint lfemur
    lfemur ltibia
    ltibia lfoot
    lfoot ltoes
    rhipjoint rfemur
    rfemur rtibia
    rtibia rfoot
    rfoot rtoes
    lowerback upperback
    upperback thorax
    thorax lowerneck lclavicle rclavicle
    lowerneck upperneck
    upperneck head
    lclavicle lhumerus
    lhumerus lradius
    lradius lwrist
    lwrist lhand lthumb
    lhand lfingers
    rclavicle rhumerus
    rhumerus rradius
    rradius rwrist
    rwrist rhand rthumb
    rhand rfingers
  end

#!OML:ASF H:\Dans Jumps\Project 1\Capture day 1\Session 1\subject.ASF
:FULLY-SPECIFIED
:DEGREES
1
root 0.517953 17.5653 -13.8962 7.35556 0.112529 -1.31032
lowerback -2.15615 -0.625223 0.0631736
upperback 3.12251 -0.911531 1.84588
thorax 4.45854 -0.485151 1.81602
lowerneck -14.6589 0.278537 -2.52957
upperneck 29.5837 0.80521 0.976896
head 12.1535 0.199282 0.922096
rclavicle -5.46658e-015 -1.98785e-015
rhumerus -24.4436 -17.088 -77.6625
rradius 24.7484
rwrist 32.4593
rhand -18.2916 -26.0773
rfingers 7.12502
rthumb 7.98888 -55.9063
lclavicle -5.46658e-015 -1.98785e-015
lhumerus -22.3804 2.06174 85.3386
lradius 19.7178
lwrist 3.97792
lhand -23.7794 -3.08489
lfingers 7.12502
lthumb 2.69044 26.8779
rfemur -14.1894 -3.35 20.8699
rtibia 21.4091
rfoot -13.944 -2.57806
rtoes 9.92678
lfemur -14.3477 8.76005 -19.5196
ltibia 19.6363
lfoot -11.4597 3.18506
ltoes -0.767865
2
root 0.518991 17.5657 -13.8976 7.36132 0.124958 -1.32018
lowerback -2.14136 -0.634148 0.0459711
upperback 3.11518 -0.923139 1.86391
thorax 4.44351 -0.491759 1.84377
lowerneck -14.6536 0.273346 -2.52452
upperneck 29.567 0.805497 0.946271
head 12.146 0.196163 0.909531
rclavicle -4.96962e-015 -4.37326e-015
rhumerus -24.4277 -17.065 -77.6459
rradius 24.739
rwrist 32.475
rhand -18.2618 -26.1046
rfingers 7.12502
rthumb 8.01768 -55.9325
lclavicle -4.96962e-015 -4.37326e-015
lhumerus -22.3743 2.0987 85.3386
lradius 19.7193
lwrist 3.95362
lhand -23.8169 -3.14985
lfingers 7.12502
lthumb 2.65415 26.8134
rfemur -14.1942 -3.33017 20.8801
rtibia 21.3969
rfoot -13.9258 -2.62027
rtoes 9.88017
lfemur -14.3831 8.75481 -19.5137
ltibia 19.6561
lfoot -11.4503 3.17237
ltoes -0.735053
3
root 0.521006 17.565 -13.8981 7.37053 0.138372 -1.32647
lowerback -2.14234 -0.632068 0.0588862
upperback 3.10722 -0.92054 1.85792
thorax 4.43535 -0.489853 1.83048
lowerneck -14.6474 0.281501 -2.52354
upperneck 29.5703 0.812514 0.960528
head 12.1457 0.201251 0.915753
rclavicle -4.17448e-015 1.98785e-015
rhumerus -24.4364 -17.0966 -77.6335
rradius 24.7361
rwrist 32.487
rhand -18.249 -26.1557
rfingers 7.12502
rthumb 8.02999 -55.9831
lclavicle -4.17448e-015 1.98785e-015
lhumerus -22.3798 2.08522 85.3225
lradius 19.7457
lwrist 3.95077
lhand -23.7877 -3.0902
lfingers 7.12502
lthumb 2.68235 26.8727
rfemur -14.2273 -3.34346 20.8798
rtibia 21.4429
rfoot -13.9503 -2.60743
rtoes 9.97543
lfemur -14.3846 8.76321 -19.5165
ltibia 19.645
lfoot -11.4504 3.15415
ltoes -0.74072
4
root 0.522561 17.563 -13.8981 7.36335 0.130409 -1.34058
lowerback -2.13604 -0.635775 0.0618658
upperback 3.11302 -0.925806 1.86176
thorax 4.43801 -0.492483 1.83251
lowerneck -14.6421 0.280321 -2.49219
upperneck 29.549 0.808101 0.939195
head 12.1365 0.200187 0.90142
rclavicle -8.94531e-015 6.36111e-015
rhumerus -24.4196 -17.0666 -77.6457
rradius 24.7467
rwrist 32.4721
rhand -18.2413 -26.1361
rfingers 7.12502
rthumb 8.03741 -55.9633
lclavicle -8.94531e-015 6.36111e-015
lhumerus -22.3698 2.10952 85.3049
lradius 19.7183
lwrist 3.91531
lhand -23.8432 -3.26024
lfingers 7.12502
lthumb 2.62882 26.7033
rfemur -14.2467 -3.32548 20.8881
rtibia 21.4935
rfoot -13.9735 -2.61761
rtoes 9.94776
lfemur -14.3449 8.7743 -19.5086
ltibia 19.6326
lfoot -11.4659 3.18566
ltoes -0.928472
5
root 0.524167 17.5608 -13.8987 7.36623 0.132453 -1.34927
lowerback -2.13005 -0.639238 0.0614689
upperback 3.10889 -0.93039 1.86468
thorax 4.43052 -0.494789 1.83555
lowerneck -14.6324 0.283201 -2.48184
upperneck 29.538 0.810158 0.935157
head 12.1301 0.201822 0.898248
rclavicle 7.55382e-015 -1.07344e-014
rhumerus -24.4163 -17.0555 -77.6447
rradius 24.75
rwrist 32.4728
rhand -18.2373 -26.1472
rfingers 7.12502
rthumb 8.04127 -55.9742
lclavicle 7.55382e-015 -1.07344e-014
lhumerus -22.3697 2.11722 85.292
lradius 19.7014
lwrist 3.88765
lhand -23.8846 -3.41153
lfingers 7.12502
lthumb 2.58878 26.5525
rfemur -14.29 -3.31868 20.8918
rtibia 21.5668
rfoot -14.0046 -2.62555
rtoes 9.94501
lfemur -14.3147 8.78809 -19.5093
ltibia 19.6091
lfoot -11.4729 3.20117
ltoes -1.1101
6
root 0.525808 17.5583 -13.8993 7.37056 0.134847 -1.35704
lowerback -2.12458 -0.643098 0.0597101
upperback 3.10338 -0.935433 1.86776
thorax 4.42192 -0.497361 1.83947
lowerneck -14.6241 0.28652 -2.47598
upperneck 29.5309 0.812488 0.936526
head 12.1255 0.203738 0.897967
rclavicle -5.56597e-015 9.54166e-015
rhumerus -24.4164 -17.0382 -77.644
rradius 24.7551
rwrist 32.4677
rhand -18.2402 -26.1507
rfingers 7.12502
rthumb 8.0385 -55.9778
lclavicle -5.56597e-015 9.54166e-015
lhumerus -22.3713 2.11567 85.2825
lradius 19.6822
lwrist 3.86532
lhand -23.9242 -3.56712
lfingers 7.12502
lthumb 2.55054 26.3974
rfemur -14.3403 -3.31456 20.8945
rtibia 21.6501
rfoot -14.0399 -2.63146
rtoes 9.94296
lfemur -14.2794 8.80416 -19.5121
ltibia 19.5788
lfoot -11.4785 3.21941
ltoes -1.32879
7
root 0.527498 17.5561 -13.9 7.3753 0.13705 -1.36367
lowerback -2.1201 -0.647624 0.0549368
upperback 3.09831 -0.941326 1.87251
thorax 4.41447 -0.500492 1.84676
lowerneck -14.6199 0.290341 -2.47584
upperneck 29.528 0.81652 0.940429
head 12.1233 0.206054 0.899938
rclavicle -1.98785e-016 3.97569e-015
rhumerus -24.4159 -17.0134 -77.6424
rradius 24.7605
rwrist 32.46
rhand -18.247 -26.1525
rfingers 7.12502
rthumb 8.03198 -55.9799
lclavicle -1.98785e-016 3.97569e-015
lhumerus -22.3698 2.10905 85.2782
lradius 19.6612
lwrist 3.84731
lhand -23.9598 -3.7254
lfingers 7.12502
lthumb 2.51622 26.2395
rfemur -14.3871 -3.31251 20.8958
rtibia 21.726
rfoot -14.0721 -2.63576
rtoes 9.94271
lfemur -14.2497 8.8176 -19.5161
ltibia 19.5522
lfoot -11.4811 3.237
ltoes -1.53016
8
root 0.529255 17.5545 -13.9007 7.38024 0.13986 -1.36962
lowerback -2.11442 -0.652199 0.0487898
upperback 3.09235 -0.947233 1.8782
thorax 4.40545 -0.503684 1.85582
lowerneck -14.6193 0.294661 -2.48285
upperneck 29.5312 0.821971 0.94909
head 12.1242 0.20876 0.905219
rclavicle 1.98785e-015 1.78906e-014
rhumerus -24.4181 -16.9869 -77.6384
rradius 24.7658
rwrist 32.4519
rhand -18.2565 -26.1492
rfingers 7.12502
rthumb 8.02277 -55.977
lclavicle 1.98785e-015 1.78906e-014
lhumerus -22.3681 2.08975 85.2799
lradius 19.6475
lwrist 3.84648
lhand -23.9787 -3.8277
lfingers 7.12502
lthumb 2.49789 26.1374
rfemur -14.4251 -3.3132 20.8964
rtibia 21.784
rfoot -14.0957 -2.63882
rtoes 9.94574
lfemur -14.2305 8.82514 -19.5201
ltibia 19.532
lfoot -11.4798 3.25119
ltoes -1.67978
